<svg width="120" height="143" viewBox="0 0 120 143" fill="none" xmlns="http://www.w3.org/2000/svg">
<path d="M60 143C93.1371 143 120 116.137 120 83H0C0 116.137 26.8629 143 60 143Z" fill="#EEE6FF"/>
<path d="M109.5 76.6279C109.5 80.0095 108.127 81.8633 106.185 83.7815C105.825 84.1368 105.436 84.5008 105.029 84.8812C103.249 86.545 101.133 88.5229 99.6882 91.467C98.9544 92.9623 98.5512 94.8065 98.271 96.6677C98.0732 97.9816 97.925 99.3991 97.7796 100.789C97.719 101.368 97.6589 101.943 97.5959 102.503C97.3768 104.452 97.1192 106.274 96.6885 107.831C96.2539 109.402 95.6845 110.544 94.9499 111.264C94.2078 111.991 93.1469 112.462 91.7339 112.739C90.3148 113.018 88.6755 113.077 86.8824 113.085C86.4544 113.087 86.0153 113.085 85.5701 113.084C84.2033 113.08 82.7784 113.076 81.4377 113.16C79.6536 113.271 77.8355 113.543 76.2587 114.264C73.3341 115.6 71.1858 117.968 69.332 120.011C68.9631 120.418 68.6058 120.812 68.2564 121.182C66.0559 123.514 64.0455 125.128 61 125.128C57.9307 125.128 55.7614 123.488 53.4 121.146C53.0013 120.751 52.5935 120.33 52.173 119.896C50.217 117.875 47.9867 115.572 45.1235 114.264C43.5519 113.545 41.7772 113.272 40.0443 113.16C38.745 113.076 37.3718 113.08 36.0616 113.084C35.6358 113.085 35.2167 113.087 34.8089 113.085C33.0944 113.077 31.5365 113.018 30.1802 112.741C28.836 112.467 27.8024 112.001 27.0501 111.264C26.2992 110.528 25.693 109.364 25.2016 107.785C24.7147 106.22 24.3832 104.393 24.0876 102.445C23.9939 101.829 23.9031 101.194 23.8117 100.555C23.6214 99.224 23.4282 97.8734 23.2001 96.622C22.8619 94.7666 22.4176 92.9415 21.6939 91.467C20.2867 88.5996 18.3384 86.6457 16.7023 85.0049C16.2929 84.5944 15.9031 84.2035 15.5462 83.8228C13.7684 81.9263 12.5 80.06 12.5 76.6279C12.5 73.4876 14.0061 70.8648 16.0856 68.0902C16.5532 67.4662 17.0587 66.826 17.5777 66.1686C19.2683 64.0276 21.1035 61.7033 22.25 59.156C23.4157 56.5659 23.7509 53.6121 24.049 50.9841C24.1107 50.4407 24.1708 49.9112 24.2363 49.4018C24.6394 46.2668 25.2381 43.7682 27.0501 41.9919C27.7987 41.2579 28.9239 40.6057 30.3798 40.0118C31.8234 39.423 33.4898 38.9316 35.248 38.467C35.9702 38.2762 36.7315 38.0842 37.495 37.8917C38.5252 37.6318 39.5593 37.371 40.5063 37.1108C42.1877 36.6489 43.8228 36.1312 45.1609 35.4745C46.9121 34.615 48.347 33.6943 49.6202 32.8164C50.0913 32.4916 50.5254 32.1837 50.9405 31.8892C51.6811 31.3639 52.3614 30.8814 53.084 30.4219C55.202 29.0752 57.3921 28.1279 61 28.1279C63.8691 28.1279 66.4497 29.5299 69.2191 31.4562C69.8214 31.8751 70.4395 32.3254 71.072 32.7862C73.2102 34.3439 75.5135 36.0219 77.9296 37.0152C80.5187 38.0797 83.3033 38.441 85.7909 38.7638C86.4045 38.8434 87.0001 38.9207 87.5701 39.0056C90.5686 39.4521 93.0261 40.1059 94.9499 41.9919C96.82 43.8252 97.977 47.1591 98.9891 51.1252C99.2357 52.0912 99.4685 53.07 99.7019 54.0515L99.7069 54.0728C99.9376 55.0429 100.169 56.0167 100.41 56.9597C100.893 58.8473 101.433 60.6897 102.132 62.2435C103.284 64.8018 104.778 66.6794 106.042 68.2677C106.421 68.7434 106.779 69.1932 107.101 69.6275C108.496 71.5097 109.5 73.3894 109.5 76.6279Z" fill="white" stroke="#CAB2F1" stroke-width="3"/>
<path d="M66.25 85.3779L60 91.6279M60 91.6279L53.75 85.3779M60 91.6279V61.6279" stroke="#363636" stroke-width="1.5" stroke-linecap="round" stroke-linejoin="round"/>
<path d="M27.041 11.7862L27.8458 10.2338C28.976 10.4839 30.3978 10.9413 31.175 11.3794L30.3165 13.0692C29.5883 12.5869 28.1722 12.0721 27.041 11.7862ZM19.2573 19.4659L32.0099 12.675L32.8672 14.285L20.1146 21.0759L19.2573 19.4659ZM21.1172 23.6055C22.6907 22.4413 25.1258 20.5464 27.3566 18.7784L28.3034 20.2501C26.2713 21.9485 24.0772 23.7514 22.4509 25.0887L21.1172 23.6055ZM20.7298 15.7633L22.4386 14.8534L27.5224 24.4002C28.0112 25.3181 28.0758 25.8819 27.6397 26.4586C27.2176 27.0277 26.4145 27.5279 25.2565 28.1446C24.9302 27.702 24.2416 27.0898 23.7317 26.745C24.5593 26.3587 25.3784 25.9226 25.625 25.7731C25.8792 25.6377 25.9264 25.522 25.7985 25.2819L20.7298 15.7633ZM22.745 12.5693L24.656 13.4007C23.1209 14.9432 20.909 16.6105 18.9816 17.9269C18.6863 17.5766 18.136 17.0539 17.7353 16.7779C19.5836 15.4492 21.5536 13.8382 22.745 12.5693ZM24.1441 11.8606L25.9235 10.913C28.8553 16.657 33.2097 21.7704 34.4949 21.086C34.7914 20.9281 34.5783 20.1534 33.7681 18.4277C34.3317 18.6351 35.1213 18.7222 35.671 18.6651C36.7338 21.3077 36.528 22.2149 35.2429 22.8992C32.3195 24.4559 27.5631 18.179 24.1441 11.8606ZM31.1665 15.7888L33.0019 15.6272C32.9319 19.0361 31.7505 22.3662 29.9163 25.0831C29.4365 24.7948 28.6696 24.4781 28.0429 24.3224C29.8713 21.9348 31.1505 18.7884 31.1665 15.7888Z" fill="#B28FEA"/>
<path d="M36.825 8.00552L50.7907 5.06433L51.16 6.81787L37.1943 9.75905L36.825 8.00552ZM42.2393 12.7516L49.0499 11.3173L49.3797 12.8829L42.569 14.3173L42.2393 12.7516ZM40.2886 10.3991L48.2109 8.73068L48.5571 10.3746L42.498 11.6507L44.2159 19.8077L42.3527 20.2001L40.2886 10.3991ZM47.8351 8.80982L49.6669 8.42403L51.3057 16.2053C51.5002 17.1291 51.4368 17.682 50.8575 18.1147C50.2906 18.5284 49.4015 18.732 48.1333 18.9991C47.9462 18.4989 47.5276 17.7532 47.1748 17.3206C47.9989 17.1961 48.9193 16.9859 49.1855 16.9298C49.436 16.8771 49.5134 16.779 49.4673 16.5598L47.8351 8.80982ZM41.2763 5.07326L43.31 5.10278C42.9593 8.87197 41.8388 12.8687 39.2342 15.6409C38.8791 15.2742 38.1423 14.7263 37.6907 14.4453C40.0918 12.0266 41.1364 8.29115 41.2763 5.07326ZM42.7834 15.3349L49.594 13.9006L49.9237 15.4663L43.1131 16.9006L42.7834 15.3349Z" fill="#B28FEA"/>
<path d="M57.6622 12.0456L72.302 13.234L72.1596 14.9883L57.5198 13.7999L57.6622 12.0456ZM64.2939 5.89002L66.6701 6.08291L66.573 7.27898L64.1969 7.08609L64.2939 5.89002ZM68.9353 4.08363L71.3912 4.28299L71.267 5.81396L68.811 5.6146L68.9353 4.08363ZM68.7622 7.00721L70.9949 7.18845L70.8706 8.71941L68.6379 8.53818L68.7622 7.00721ZM68.5119 9.89242L70.7446 10.0737L70.6216 11.5887L68.389 11.4074L68.5119 9.89242ZM59.9273 6.29003L62.1599 6.47127L62.0356 8.00223L59.803 7.82099L59.9273 6.29003ZM59.7248 9.17912L61.9256 9.35777L61.8026 10.8728L59.6019 10.6941L59.7248 9.17912ZM62.7822 3.55204L68.619 4.02585L67.8435 13.5784L66.4561 13.4658L67.1163 5.33255L64.0065 5.08011L63.3463 13.2134L62.0067 13.1046L62.7822 3.55204ZM64.8785 8.97143L64.7633 10.3908L65.4331 10.4451L65.5483 9.0258L64.8785 8.97143ZM64.1864 7.80761L66.435 7.99014L66.1412 11.6102L63.8926 11.4277L64.1864 7.80761ZM59.4758 3.34786L61.4567 3.86182C61.4304 3.9881 61.3123 4.05878 61.0533 4.08591L60.5637 13.0838L58.953 12.953L59.4758 3.34786ZM70.3547 4.19885L72.0451 4.33607C71.7504 7.57083 71.269 11.7215 70.8623 14.1606L69.2516 14.0298C69.6635 11.527 70.1289 7.375 70.3547 4.19885ZM62.2637 2.81969L63.3752 4.35465C62.3954 4.7567 61.276 5.09925 60.4049 5.34959C60.339 4.97503 60.1477 4.36555 59.9861 3.98323C60.7654 3.67728 61.6706 3.20496 62.2637 2.81969ZM65.7697 15.5932L67.3073 14.4499C68.9674 15.3552 70.8927 16.5549 71.9865 17.3179L69.9986 18.4728C69.0495 17.7055 67.3489 16.508 65.7697 15.5932ZM61.9954 14.0348L63.6194 15.3866C62.2857 16.1933 60.2706 17.0892 58.7556 17.5602C58.4198 17.1477 57.8152 16.4886 57.3652 16.0989C58.9428 15.6491 60.9419 14.7519 61.9954 14.0348Z" fill="#B28FEA"/>
<path d="M84.8303 7.5217L92.0106 10.2467L91.4372 11.7576L84.2569 9.03256L84.8303 7.5217ZM87.9588 11.4985L91.1899 12.7248L90.6506 14.1459L87.4195 12.9196L87.9588 11.4985ZM85.0778 10.7474L87.5162 11.6728L87.0052 13.0191L84.5669 12.0937L85.0778 10.7474ZM84.0844 13.3652L86.5227 14.2906L86.0061 15.6519L83.5677 14.7265L84.0844 13.3652ZM87.6863 9.37569L89.0924 9.90933L85.1071 20.4105L83.701 19.8769L87.6863 9.37569ZM85.2635 8.3193L86.6546 8.84727L83.5039 17.1495L82.0332 16.831L85.2635 8.3193ZM81.1888 16.3051C82.2798 16.4967 83.8537 16.7689 85.4389 17.0111L85.0832 18.3992C83.6419 18.2287 82.1408 18.0355 80.9224 17.864L81.1888 16.3051ZM90.8309 12.5885L91.1301 12.702L91.4107 12.7743L92.221 13.3899C90.3597 17.1672 88.2617 19.6739 86.0991 20.5474C86.0558 20.1203 85.7913 19.284 85.583 18.9311C87.483 18.1633 89.2368 16.0223 90.7174 12.8877L90.8309 12.5885ZM88.9401 13.8732C88.5311 16.439 88.706 19.0895 89.8174 20.7606C89.3861 20.905 88.7237 21.2525 88.3574 21.5413C87.2321 19.5912 87.1743 16.6771 87.6412 13.6883L88.9401 13.8732ZM79.5846 6.64331L84.551 8.5281L83.9606 10.0838L78.9942 8.19905L79.5846 6.64331ZM78.1846 9.29511L83.7344 11.4013L83.1383 12.972L77.5886 10.8658L78.1846 9.29511ZM80.1236 13.3852L82.532 14.2992L81.9359 15.8699L79.5275 14.9559L80.1236 13.3852ZM82.0877 5.8648L83.6883 6.47224L81.6787 11.7677L80.078 11.1603L82.0877 5.8648ZM80.3808 11.3094L81.9366 11.8998L79.4046 18.5715L77.8489 17.9811L80.3808 11.3094ZM78.4918 14.0323C78.1672 17.503 79.8013 18.6536 82.9576 19.8515C84.0347 20.2602 87.8734 21.7342 89.2033 22.1533C88.7601 22.4643 88.1487 23.1735 87.8246 23.6666L82.2898 21.5661C78.3556 20.073 76.5844 18.5623 77.0577 13.933L78.4918 14.0323ZM77.6838 11.8774L79.1214 12.5086C78.2765 14.9603 77.1329 17.6581 75.177 19.2945C75.0739 18.8447 74.7042 18.1054 74.4225 17.8103C76.0106 16.3765 76.9845 13.9908 77.6838 11.8774Z" fill="#B28FEA"/>
<path d="M99.3864 25.0166L102.354 20.4002L103.727 18.45L105.833 20.0416L104.332 21.8954L100.701 26.0102L99.3864 25.0166ZM97.4745 28.9264C96.8107 28.4248 96.6954 27.5956 97.197 26.9318C97.6986 26.268 98.531 26.1751 99.182 26.6671C99.8202 27.1494 99.958 27.9755 99.4564 28.6393C98.9548 29.303 98.1128 29.4088 97.4745 28.9264Z" fill="#B28FEA"/>
</svg>
