<svg width="120" height="143" viewBox="0 0 120 143" fill="none" xmlns="http://www.w3.org/2000/svg">
<g clip-path="url(#clip0_1302_3153)">
<path d="M60 143C93.1371 143 120 116.137 120 83H0C0 116.137 26.8629 143 60 143Z" fill="#BFC9F0"/>
<path d="M109.5 76.6279C109.5 80.0095 108.127 81.8633 106.185 83.7815C105.825 84.1369 105.436 84.5008 105.029 84.8812C103.249 86.545 101.133 88.5229 99.6882 91.4671C98.9544 92.9623 98.5512 94.8065 98.271 96.6677C98.0732 97.9816 97.925 99.3991 97.7796 100.789C97.719 101.368 97.6589 101.943 97.5959 102.503C97.3768 104.452 97.1192 106.274 96.6885 107.831C96.2539 109.402 95.6845 110.544 94.9499 111.264C94.2078 111.991 93.1469 112.462 91.7339 112.739C90.3148 113.018 88.6755 113.077 86.8824 113.085C86.4544 113.087 86.0153 113.085 85.5701 113.084C84.2033 113.08 82.7784 113.076 81.4377 113.16C79.6536 113.271 77.8355 113.543 76.2587 114.264C73.3341 115.6 71.1858 117.968 69.332 120.011C68.9631 120.418 68.6058 120.812 68.2564 121.182C66.0559 123.514 64.0455 125.128 61 125.128C57.9307 125.128 55.7614 123.488 53.4 121.146C53.0013 120.751 52.5935 120.33 52.173 119.896C50.217 117.876 47.9867 115.572 45.1235 114.264C43.5519 113.545 41.7772 113.272 40.0443 113.16C38.745 113.076 37.3718 113.08 36.0616 113.084C35.6358 113.085 35.2167 113.087 34.8089 113.085C33.0944 113.077 31.5365 113.018 30.1802 112.741C28.836 112.467 27.8024 112.002 27.0501 111.264C26.2992 110.528 25.693 109.364 25.2016 107.785C24.7147 106.22 24.3832 104.393 24.0876 102.445C23.9939 101.829 23.9031 101.194 23.8117 100.555C23.6214 99.2241 23.4282 97.8734 23.2001 96.622C22.8619 94.7667 22.4176 92.9416 21.6939 91.4671C20.2867 88.5996 18.3384 86.6457 16.7023 85.005C16.2929 84.5945 15.9031 84.2036 15.5462 83.8228C13.7684 81.9263 12.5 80.06 12.5 76.6279C12.5 73.4876 14.0061 70.8648 16.0856 68.0902C16.5532 67.4662 17.0587 66.8261 17.5777 66.1687C19.2683 64.0276 21.1035 61.7033 22.25 59.156C23.4157 56.566 23.7509 53.6122 24.049 50.9841C24.1107 50.4407 24.1708 49.9113 24.2363 49.4018C24.6394 46.2668 25.2381 43.7683 27.0501 41.9919C27.7987 41.258 28.9239 40.6057 30.3798 40.0119C31.8234 39.423 33.4898 38.9316 35.248 38.4671C35.9702 38.2762 36.7315 38.0842 37.495 37.8917C38.5252 37.6319 39.5593 37.371 40.5063 37.1109C42.1877 36.6489 43.8228 36.1312 45.1609 35.4745C46.9121 34.6151 48.347 33.6943 49.6202 32.8165C50.0913 32.4917 50.5254 32.1838 50.9405 31.8893C51.6811 31.364 52.3614 30.8814 53.084 30.4219C55.202 29.0753 57.3921 28.1279 61 28.1279C63.8691 28.1279 66.4497 29.5299 69.2191 31.4562C69.8214 31.8751 70.4395 32.3254 71.072 32.7862C73.2102 34.344 75.5135 36.0219 77.9296 37.0153C80.5187 38.0797 83.3033 38.441 85.7909 38.7638C86.4045 38.8434 87.0001 38.9207 87.5701 39.0056C90.5686 39.4522 93.0261 40.1059 94.9499 41.9919C96.82 43.8252 97.977 47.1591 98.9891 51.1252C99.2357 52.0912 99.4685 53.07 99.7019 54.0516L99.7069 54.0728C99.9376 55.0429 100.169 56.0167 100.41 56.9597C100.893 58.8474 101.433 60.6897 102.132 62.2436C103.284 64.8018 104.778 66.6795 106.042 68.2677C106.421 68.7435 106.779 69.1932 107.101 69.6276C108.496 71.5097 109.5 73.3894 109.5 76.6279Z" fill="white" stroke="#A6B6F1" stroke-width="3"/>
<path d="M67.25 85.75L61 92M61 92L54.75 85.75M61 92V62" stroke="#363636" stroke-width="1.5" stroke-linecap="round" stroke-linejoin="round"/>
<path d="M26.9922 12.015L27.7988 10.4454C28.9183 10.6913 30.3258 11.1444 31.0942 11.5818L30.2335 13.2902C29.514 12.808 28.1124 12.2969 26.9922 12.015ZM19.2309 19.801L31.9151 12.8833L32.7566 14.5016L20.0723 21.4193L19.2309 19.801ZM21.0528 23.9639C22.6196 22.7815 25.0449 20.8575 27.2669 19.0626L28.1979 20.541C26.1733 22.2647 23.9875 24.0945 22.3673 25.4518L21.0528 23.9639ZM20.7114 16.0599L22.4111 15.133L27.4007 24.7293C27.8805 25.652 27.9414 26.2201 27.5058 26.8039C27.0841 27.38 26.2849 27.8888 25.133 28.517C24.8119 28.0726 24.1323 27.4593 23.6285 27.1145C24.4513 26.7204 25.2661 26.2761 25.5115 26.124C25.7644 25.9861 25.8117 25.8692 25.6863 25.6279L20.7114 16.0599ZM22.7274 12.8286L24.6181 13.656C23.0872 15.2197 20.8845 16.913 18.9658 18.251C18.6749 17.8994 18.132 17.3756 17.7361 17.0995C19.5764 15.7496 21.5389 14.1145 22.7274 12.8286ZM24.1187 12.1062L25.8886 11.141C28.7649 16.9155 33.0554 22.0463 34.3336 21.3491C34.6286 21.1882 34.4215 20.4084 33.6274 18.6731C34.1852 18.8791 34.9678 18.9625 35.5133 18.9019C36.5528 21.5601 36.3438 22.4758 35.0656 23.1729C32.1579 24.7587 27.475 18.4571 24.1187 12.1062ZM31.0617 16.0273L32.8828 15.8541C32.7948 19.2912 31.605 22.655 29.7711 25.4044C29.2968 25.1165 28.538 24.8014 27.9173 24.648C29.7436 22.2307 31.0294 19.0514 31.0617 16.0273Z" fill="#7F94E2"/>
<path d="M36.8118 8.09873L50.763 5.08962L51.1239 6.8449L37.1727 9.854L36.8118 8.09873ZM42.1949 12.8298L48.9984 11.3624L49.3207 12.9296L42.5171 14.3971L42.1949 12.8298ZM40.2582 10.4815L48.1722 8.77455L48.5106 10.4201L42.4578 11.7256L44.1369 19.8908L42.2757 20.2922L40.2582 10.4815ZM47.7969 8.85551L49.6268 8.46082L51.2285 16.2498C51.4186 17.1745 51.3529 17.7288 50.7729 18.1649C50.2053 18.5819 49.317 18.7899 48.0502 19.0631C47.8656 18.5628 47.451 17.8175 47.1009 17.3856C47.9238 17.2572 48.8434 17.0425 49.1093 16.9852C49.3595 16.9312 49.4372 16.8326 49.3921 16.6132L47.7969 8.85551ZM41.2671 5.14097L43.2968 5.16148C42.9303 8.93951 41.7947 12.9489 39.1831 15.7381C38.8302 15.3723 38.0973 14.8266 37.6478 14.5471C40.0547 12.113 41.1135 8.3657 41.2671 5.14097ZM42.7266 15.4157L49.5302 13.9483L49.8524 15.5155L43.0489 16.9829L42.7266 15.4157Z" fill="#7F94E2"/>
<path d="M57.6863 12.0488L72.3238 13.2657L72.1847 15.0202L57.5472 13.8033L57.6863 12.0488ZM64.3044 5.90408L66.6802 6.1016L66.5854 7.29784L64.2096 7.10033L64.3044 5.90408ZM68.941 4.10605L71.3965 4.3102L71.2751 5.8414L68.8196 5.63725L68.941 4.10605ZM68.7734 7.0302L71.0057 7.21579L70.8843 8.74699L68.652 8.5614L68.7734 7.0302ZM68.5286 9.91582L70.7609 10.1014L70.6408 11.6167L68.4085 11.4311L68.5286 9.91582ZM59.9399 6.29582L62.1722 6.4814L62.0508 8.0126L59.8185 7.82701L59.9399 6.29582ZM59.7429 9.18541L61.9433 9.36835L61.8232 10.8836L59.6228 10.7007L59.7429 9.18541ZM62.7887 3.56247L68.6246 4.04764L67.8673 13.6017L66.4801 13.4864L67.1249 5.35186L64.0156 5.09337L63.3708 13.2279L62.0315 13.1165L62.7887 3.56247ZM64.8946 8.98756L64.7821 10.4071L65.4518 10.4628L65.5643 9.04323L64.8946 8.98756ZM64.2006 7.82205L66.4488 8.00897L66.1618 11.6296L63.9136 11.4427L64.2006 7.82205ZM59.4831 3.35187L61.4643 3.86979C61.4382 3.99607 61.3203 4.06654 61.0614 4.09318L60.5888 13.0929L58.9784 12.959L59.4831 3.35187ZM70.3601 4.22403L72.0502 4.36455C71.7617 7.59974 71.2882 11.7508 70.8863 14.1898L69.2758 14.0559C69.6829 11.5531 70.1404 7.40073 70.3601 4.22403ZM62.2691 2.8289L63.383 4.36647C62.4044 4.76676 61.286 5.10726 60.4156 5.35601C60.349 4.9812 60.1566 4.37117 59.9943 3.98841C60.7728 3.68387 61.6769 3.21315 62.2691 2.8289ZM65.7979 15.6131L67.3329 14.4724C68.9942 15.3811 70.9211 16.5849 72.0161 17.3503L70.0309 18.5017C69.0807 17.7324 67.3783 16.5312 65.7979 15.6131ZM62.0219 14.0469L63.6479 15.4023C62.3162 16.2067 60.3034 17.099 58.7897 17.5672C58.4533 17.1539 57.8476 16.4935 57.397 16.1028C58.9733 15.6558 60.9701 14.7622 62.0219 14.0469Z" fill="#7F94E2"/>
<path d="M84.8569 7.64592L92.0152 10.4282L91.4537 11.9435L84.2954 9.16123L84.8569 7.64592ZM87.9921 11.6622L91.2134 12.9143L90.6852 14.3395L87.464 13.0875L87.9921 11.6622ZM85.122 10.89L87.5529 11.8348L87.0525 13.185L84.6217 12.2402L85.122 10.89ZM84.1491 13.5155L86.58 14.4603L86.074 15.8256L83.6432 14.8808L84.1491 13.5155ZM87.7086 9.5267L89.1105 10.0716L85.2077 20.6037L83.8059 20.0588L87.7086 9.5267ZM85.2924 8.45027L86.6794 8.98934L83.5938 17.316L82.1291 16.987L85.2924 8.45027ZM81.2861 16.4534C82.3725 16.6525 83.9396 16.9355 85.5178 17.1885L85.1722 18.5817C83.7375 18.4017 82.2432 18.1985 81.0302 18.0188L81.2861 16.4534ZM90.8555 12.7751L91.1537 12.8911L91.4333 12.9654L92.2429 13.589C90.4135 17.3749 88.3413 19.8822 86.1952 20.7472C86.1497 20.3176 85.8817 19.4754 85.6724 19.1194C87.5579 18.359 89.2899 16.2173 90.7443 13.0752L90.8555 12.7751ZM88.9821 14.0552C88.5903 16.632 88.7798 19.2974 89.8951 20.9838C89.467 21.1264 88.8101 21.4718 88.4474 21.7599C87.3166 19.7928 87.2421 16.8632 87.689 13.8615L88.9821 14.0552ZM79.6338 6.7315L84.585 8.65589L84.0068 10.2162L79.0556 8.29181L79.6338 6.7315ZM78.2568 9.38875L83.7895 11.5392L83.2058 13.1145L77.673 10.9641L78.2568 9.38875ZM80.2094 13.5118L82.6104 14.445L82.0266 16.0203L79.6256 15.0871L80.2094 13.5118ZM82.1191 5.96392L83.7148 6.58413L81.7468 11.8952L80.1511 11.275L82.1191 5.96392ZM80.4531 11.4267L82.0041 12.0296L79.5245 18.7209L77.9736 18.1181L80.4531 11.4267ZM78.59 14.1525C78.2875 17.6394 79.9196 18.8058 83.0663 20.0289C84.14 20.4462 87.9672 21.9509 89.2924 22.3801C88.8534 22.6901 88.2493 23.3993 87.9299 23.8931L82.412 21.7484C78.4899 20.224 76.7192 18.6947 77.1629 14.0441L78.59 14.1525ZM77.7737 11.9815L79.2074 12.6246C78.3813 15.0841 77.2595 17.7891 75.3235 19.4224C75.2183 18.9696 74.8462 18.2242 74.5644 17.9258C76.1357 16.4941 77.0904 14.1017 77.7737 11.9815Z" fill="#7F94E2"/>
<path d="M99.5011 25.4775L102.421 20.8198L103.773 18.8525L105.861 20.4684L104.382 22.3377L100.804 26.4862L99.5011 25.4775ZM97.6225 29.4242C96.9646 28.915 96.8479 28.0763 97.3419 27.4068C97.8359 26.7373 98.6587 26.646 99.304 27.1454C99.9367 27.6351 100.075 28.4707 99.5815 29.1401C99.0875 29.8096 98.2552 29.9138 97.6225 29.4242Z" fill="#7F94E2"/>
</g>
<defs>
<clipPath id="clip0_1302_3153">
<rect width="120" height="143" fill="white"/>
</clipPath>
</defs>
</svg>
